# xmcd
#
# Track frame offsets:
#	150
#	26459
#	56654
#	90764
#	120551
#	154876
#	185690
#	220346
#	255362
#
# Disc length: 3822 seconds
#
# Revision: 1
# Processed by: cddbd v1.5.2PL0 Copyright (c) Steve Scherf et al.
# Submitted via: audiograbber 1.83.01
#
DISCID=6e0eec09
DTITLE=Alvin Queen - I Ain´t Looking At You
DYEAR=1900
DGENRE=
TTITLE0=There's Blues Everywhere
TTITLE1=Seven Steps To Heaven
TTITLE2=Contemplation
TTITLE3=Queen's Beat
TTITLE4=I Ain't Looking At You
TTITLE5=Shirley's Song
TTITLE6=Old Folks
TTITLE7=Nutville
TTITLE8=Mellow Soul
EXTD=
EXTT0=
EXTT1=
EXTT2=
EXTT3=
EXTT4=
EXTT5=
EXTT6=
EXTT7=
EXTT8=
PLAYORDER=
